<svg width="228" height="128" viewBox="0 0 228 128" fill="none" xmlns="http://www.w3.org/2000/svg">
<path d="M1.43257 32.0001C1.43257 31.9601 2.43257 32.0001 2.43257 32.0001C2.98257 25.9001 -0.427423 12.1801 5.66258 9.23006C11.7526 6.28006 17.6526 0.45006 24.4326 3.00006C17.0426 -2.27994 14.2226 4.60006 6.51255 8.08006C-1.19745 11.5501 1.43257 24.1701 1.43257 32.0001Z" fill="#F6D4C2"/>
<path d="M2.43257 32.0001C11.3226 29.1001 18.5928 19.28 27.1828 26.25C35.7728 33.23 43.6628 36.17 52.1328 40.31C60.5928 44.44 68.4228 54.67 77.4328 54C81.9628 51.26 90.1328 45.39 95.4328 45C95.9328 44.96 96.4328 45 96.4328 45C73.5828 29.8 46.9526 19.0901 24.4326 3.00006C17.6526 0.45006 11.7526 6.28006 5.66258 9.23006C-0.427423 12.1801 2.98257 25.9001 2.43257 32.0001Z" fill="#F89357"/>
<path d="M2.43257 32.0001C2.68257 32.2501 2.43262 33 2.43262 33C8.43262 33.69 15.4526 38.72 20.5126 41.92C25.5726 45.13 34.1426 47.96 37.4326 53C37.5826 53.23 38.4326 53 38.4326 53C41.9226 53.77 58.8526 63.66 57.4326 66C64.2726 62.23 70.9528 57.93 77.4328 54C68.4228 54.67 60.5928 44.44 52.1328 40.31C43.6628 36.17 35.7728 33.23 27.1828 26.25C18.5928 19.28 11.3226 29.1001 2.43257 32.0001Z" fill="#AA633F"/>
<path d="M15.4324 126C12.9524 124.54 6.32242 121.19 4.43242 119C-1.33758 113.23 3.66242 100.5 2.43242 92C1.20242 83.5 2.87242 72.18 2.43242 63C1.99242 53.82 2.43262 42.39 2.43262 33C2.43262 33 2.68257 32.2501 2.43257 32.0001C2.43257 32.0001 1.43257 31.9601 1.43257 32.0001C1.43257 44.2801 1.99242 55.63 1.43242 68C0.872419 80.37 2.92242 91.29 1.43242 104C-0.0575806 116.71 4.56242 120.92 15.4324 126Z" fill="#B6A499"/>
<path d="M4.43242 119C3.64242 118.08 3.61274 117.15 3.43274 116C-0.667263 89.29 6.50274 60.86 3.43274 34C9.04274 36.1 14.5927 39.69 19.4327 43C20.1027 43.35 20.8227 43.64 21.4327 44C24.7627 45.93 35.8626 49.57 37.4326 53C34.1426 47.96 25.5726 45.13 20.5126 41.92C15.4526 38.72 8.43262 33.69 2.43262 33C2.43262 42.39 1.99242 53.82 2.43242 63C2.87242 72.18 1.20242 83.5 2.43242 92C3.66242 100.5 -1.33758 113.23 4.43242 119Z" fill="#6C4733"/>
<path d="M3.43274 116C4.84274 111.1 21.8424 111.05 19.4324 103C17.0124 94.95 20.3324 94.2 19.4324 88C18.5324 81.8 19.4124 78.14 19.4324 73C19.4524 67.86 18.4724 62.18 19.4324 58C20.3924 53.82 16.9027 45.66 19.4327 43C14.5927 39.69 9.04274 36.1 3.43274 34C6.50274 60.86 -0.667263 89.29 3.43274 116Z" fill="#471F0A"/>
<path d="M3.43274 116C3.61274 117.15 3.64242 118.08 4.43242 119C6.32242 121.19 12.9524 124.54 15.4324 126C21.6424 128.91 33.5926 123.15 37.4326 117C37.1826 116.75 37.4326 116 37.4326 116C30.9726 113.69 22.5826 110.71 21.4326 103C20.2926 95.28 23.0926 82.36 21.4326 74C19.7726 65.64 24.6227 51.99 21.4327 44C20.8227 43.64 20.1027 43.35 19.4327 43C16.9027 45.66 20.3924 53.82 19.4324 58C18.4724 62.18 19.4524 67.86 19.4324 73C19.4124 78.14 18.5324 81.8 19.4324 88C20.3324 94.2 17.0124 94.95 19.4324 103C21.8424 111.05 4.84274 111.1 3.43274 116Z" fill="#613119"/>
<path d="M37.4326 116C37.4326 109.67 37.4326 103.33 37.4326 97C37.4326 90.33 37.4326 83.67 37.4326 77C37.4326 69.11 36.7226 60.85 37.4326 53C35.8626 49.57 24.7627 45.93 21.4327 44C24.6227 51.99 19.7726 65.64 21.4326 74C23.0926 82.36 20.2926 95.28 21.4326 103C22.5826 110.71 30.9726 113.69 37.4326 116Z" fill="#431D0A"/>
<path d="M77.4328 54C70.9528 57.93 64.2726 62.23 57.4326 66C51.3926 69.33 45.3826 72.54 39.4326 76C39.6626 75.87 37.1726 77.42 37.4326 77C37.4326 83.67 37.4326 90.33 37.4326 97C37.9126 96.15 40.5526 95.45 41.4326 95C49.8826 90.67 60.6926 83.14 69.1326 79.69C77.5626 76.25 88.8026 63.19 97.4326 66C93.6326 61.77 94.9328 50.56 95.4328 45C90.1328 45.39 81.9628 51.26 77.4328 54Z" fill="#652D12"/>
<path d="M97.4326 66C102.823 67.76 106.693 73.13 112.433 74C113.683 70.09 113.943 55.26 110.513 52.92C107.073 50.58 100.533 46.48 96.4328 45C96.4328 45 95.9328 44.96 95.4328 45C94.9328 50.56 93.6326 61.77 97.4326 66Z" fill="#47210E"/>
<path d="M37.4326 77C37.1726 77.42 39.6626 75.87 39.4326 76C39.8926 73.67 37.8527 68.41 38.4327 65C39.0127 61.59 38.7426 56.49 38.4326 53C38.4326 53 37.5826 53.23 37.4326 53C36.7226 60.85 37.4326 69.11 37.4326 77Z" fill="#947D72"/>
<path d="M41.4326 95C35.7926 99.54 39.0628 110.04 38.4328 117C41.5028 119.13 51.8928 109.18 56.7328 107.3C61.5828 105.43 70.5228 99.25 75.7428 96.3C80.9528 93.36 89.9628 88.93 94.7328 85.3C99.5128 81.68 110.703 79.39 112.433 74C106.693 73.13 102.823 67.76 97.4326 66C88.8026 63.19 77.5626 76.25 69.1326 79.69C60.6926 83.14 49.8826 90.67 41.4326 95Z" fill="#FC9251"/>
<path d="M37.4326 97C37.4326 103.33 37.4326 109.67 37.4326 116C37.4326 116 37.1826 116.75 37.4326 117C37.4326 117 38.0928 116.77 38.4328 117C39.0628 110.04 35.7926 99.54 41.4326 95C40.5526 95.45 37.9126 96.15 37.4326 97Z" fill="#AB6941"/>
<path d="M1.43257 32.0001C1.43257 31.9601 2.43257 32.0001 2.43257 32.0001M1.43257 32.0001C1.43257 24.1701 -1.19745 11.5501 6.51255 8.08006C14.2226 4.60006 17.0426 -2.27994 24.4326 3.00006M1.43257 32.0001C1.43257 44.2801 1.99242 55.63 1.43242 68C0.872419 80.37 2.92242 91.29 1.43242 104C-0.0575806 116.71 4.56242 120.92 15.4324 126M2.43257 32.0001C2.98257 25.9001 -0.427423 12.1801 5.66258 9.23006C11.7526 6.28006 17.6526 0.45006 24.4326 3.00006M2.43257 32.0001C11.3226 29.1001 18.5928 19.28 27.1828 26.25C35.7728 33.23 43.6628 36.17 52.1328 40.31C60.5928 44.44 68.4228 54.67 77.4328 54M2.43257 32.0001C2.68257 32.2501 2.43262 33 2.43262 33M24.4326 3.00006C46.9526 19.0901 73.5828 29.8 96.4328 45M77.4328 54C81.9628 51.26 90.1328 45.39 95.4328 45M77.4328 54C70.9528 57.93 64.2726 62.23 57.4326 66M95.4328 45C95.9328 44.96 96.4328 45 96.4328 45M95.4328 45C94.9328 50.56 93.6326 61.77 97.4326 66M96.4328 45C100.533 46.48 107.073 50.58 110.513 52.92C113.943 55.26 113.683 70.09 112.433 74M2.43262 33C8.43262 33.69 15.4526 38.72 20.5126 41.92C25.5726 45.13 34.1426 47.96 37.4326 53M2.43262 33C2.43262 42.39 1.99242 53.82 2.43242 63C2.87242 72.18 1.20242 83.5 2.43242 92C3.66242 100.5 -1.33758 113.23 4.43242 119M37.4326 53C37.5826 53.23 38.4326 53 38.4326 53M37.4326 53C35.8626 49.57 24.7627 45.93 21.4327 44M37.4326 53C36.7226 60.85 37.4326 69.11 37.4326 77M38.4326 53C41.9226 53.77 58.8526 63.66 57.4326 66M38.4326 53C38.7426 56.49 39.0127 61.59 38.4327 65C37.8527 68.41 39.8926 73.67 39.4326 76M57.4326 66C51.3926 69.33 45.3826 72.54 39.4326 76M15.4324 126C12.9524 124.54 6.32242 121.19 4.43242 119M15.4324 126C21.6424 128.91 33.5926 123.15 37.4326 117M4.43242 119C3.64242 118.08 3.61274 117.15 3.43274 116M3.43274 116C-0.667263 89.29 6.50274 60.86 3.43274 34C9.04274 36.1 14.5927 39.69 19.4327 43M3.43274 116C4.84274 111.1 21.8424 111.05 19.4324 103C17.0124 94.95 20.3324 94.2 19.4324 88C18.5324 81.8 19.4124 78.14 19.4324 73C19.4524 67.86 18.4724 62.18 19.4324 58C20.3924 53.82 16.9027 45.66 19.4327 43M19.4327 43C20.1027 43.35 20.8227 43.64 21.4327 44M21.4327 44C24.6227 51.99 19.7726 65.64 21.4326 74C23.0926 82.36 20.2926 95.28 21.4326 103C22.5826 110.71 30.9726 113.69 37.4326 116M37.4326 117C37.1826 116.75 37.4326 116 37.4326 116M37.4326 117C37.4326 117 38.0928 116.77 38.4328 117M37.4326 116C37.4326 109.67 37.4326 103.33 37.4326 97M37.4326 97C37.4326 90.33 37.4326 83.67 37.4326 77M37.4326 97C37.9126 96.15 40.5526 95.45 41.4326 95M37.4326 77C37.1726 77.42 39.6626 75.87 39.4326 76M41.4326 95C49.8826 90.67 60.6926 83.14 69.1326 79.69C77.5626 76.25 88.8026 63.19 97.4326 66M41.4326 95C35.7926 99.54 39.0628 110.04 38.4328 117M97.4326 66C102.823 67.76 106.693 73.13 112.433 74M112.433 74C110.703 79.39 99.5128 81.68 94.7328 85.3C89.9628 88.93 80.9528 93.36 75.7428 96.3C70.5228 99.25 61.5828 105.43 56.7328 107.3C51.8928 109.18 41.5028 119.13 38.4328 117" stroke="black"/>
<path d="M184.171 56.3268C189.79 59.5203 195.889 62.7839 201.289 66.2839C196.331 62.6333 189.686 59.09 184.171 56.3268Z" fill="#C4B2A9"/>
<path d="M176.702 53.0547C176.964 53.2126 177.085 53.7924 177.247 53.908C190.565 59.7458 202.01 67.6579 213.351 75.9813C212.377 75.1679 211.095 73.2906 210.16 72.5164C207.457 70.5042 204.071 68.0897 201.289 66.2839C195.889 62.7839 189.79 59.5203 184.171 56.3268C181.078 54.5711 179.345 54.0777 176.702 53.0547Z" fill="#BB7E5C"/>
<path d="M177.247 53.908C165.041 48.5564 142.078 40.3581 144.656 52.6467C147.403 54.2444 148.682 52.2429 151.502 53.411C152.776 53.4765 154.313 53.5554 155.546 53.6187C164.616 54.0846 176.496 58.4207 186.509 63.0489C196.578 67.7048 207.247 73.2992 217.009 78.6449C215.88 77.6668 214.621 76.9131 213.351 75.9813C202.01 67.6579 190.565 59.7458 177.247 53.908Z" fill="#FB9150"/>
<path d="M136.962 60.5043C137.323 61.1377 138.279 62.0533 138.83 62.6634C139.149 62.3126 139.101 61.3569 140.308 61.914C143.409 56.5812 147.994 53.2473 159.067 56.069C170.136 58.8822 176.923 60.7658 187.911 66.0094C190.03 66.8775 194.406 68.8972 196.391 69.3334C196.002 69.1071 195.613 68.8808 195.613 68.8808C193.31 67.5411 190.847 66.2427 188.61 64.8074C179.799 60.6205 169.148 57.375 160.136 54.6797C157.496 54.0614 154.195 53.7928 151.502 53.411C148.682 52.2429 147.403 54.2444 144.656 52.6467C142.078 40.3581 165.041 48.5564 177.247 53.908C177.085 53.7924 176.964 53.2126 176.702 53.0547C167.93 47.797 153.772 43.6532 145.875 43.8377C137.976 44.0263 134.287 53.9505 136.962 60.5043Z" fill="#66351C"/>
<path d="M213.351 75.9813C214.621 76.9131 215.88 77.6668 217.009 78.6449C215.547 76.6098 212.615 74.3466 210.16 72.5164C211.095 73.2906 212.377 75.1679 213.351 75.9813Z" fill="#CEB6A9"/>
<path d="M155.546 53.6187C157.097 53.8717 158.529 54.2011 160.136 54.6797C169.148 57.375 179.799 60.6205 188.61 64.8074C187.814 64.2961 186.876 63.2947 186.509 63.0489C176.496 58.4207 164.616 54.0846 155.546 53.6187Z" fill="#D4B9A9"/>
<path d="M195.613 68.8808C195.613 68.8808 196.002 69.1071 196.391 69.3334C199.76 71.2931 203.137 73.2574 206.506 75.2172C206.895 75.4435 207.667 75.9081 208.063 76.1224C208.321 76.0902 208.296 75.7217 208.296 75.7217C204.146 73.1524 199.385 70.8282 195.613 68.8808Z" fill="#998378"/>
<path d="M208.063 76.1224C209.699 77.0152 210.712 78.0658 211.72 78.786C213.452 79.8364 216.207 82.5651 215.145 81.8503C216.312 82.4756 218.624 84.1582 218.723 82.8594C215.221 80.4306 211.993 78.0119 208.296 75.7217C208.296 75.7217 208.321 76.0902 208.063 76.1224Z" fill="#E0BEAA"/>
<path d="M187.911 66.0094C194.155 68.9875 199.986 71.9609 206.273 75.6178C206.221 75.5821 206.506 75.2172 206.506 75.2172C203.137 73.2574 199.76 71.2931 196.391 69.3334C194.406 68.8972 190.03 66.8775 187.911 66.0094Z" fill="#94522C"/>
<path d="M206.273 75.6178C208.086 76.6724 209.926 77.6994 211.72 78.786C210.712 78.0658 209.699 77.0152 208.063 76.1224C207.667 75.9081 206.895 75.4435 206.506 75.2172C206.506 75.2172 206.221 75.5821 206.273 75.6178Z" fill="#BD7F5A"/>
<path d="M187.911 66.0094C176.923 60.7658 170.136 58.8822 159.067 56.069C147.994 53.2473 143.409 56.5812 140.308 61.914C140.191 62.1144 140.031 62.5683 139.841 62.7154C142.777 64.0958 146.405 60.849 150.01 61.7934C153.616 62.7379 156.939 61.6789 160.927 62.808C164.92 63.9456 169.221 64.2862 173.505 65.6575C177.795 67.0373 181.916 68.2599 186.472 69.8803C191.022 71.4922 196.187 73.4617 200.865 75.5711C205.542 77.6806 210.427 79.9163 215.145 81.8503C216.207 82.5651 213.452 79.8364 211.72 78.786C209.926 77.6994 208.086 76.6724 206.273 75.6178C199.986 71.9609 194.155 68.9875 187.911 66.0094Z" fill="#FB9253"/>
<path d="M155.546 53.6187C154.313 53.5554 152.776 53.4765 151.502 53.411C154.195 53.7928 157.496 54.0614 160.136 54.6797C158.529 54.2011 157.097 53.8717 155.546 53.6187Z" fill="#9F7C68"/>
<path d="M136.962 60.5043C137.482 61.7772 138.465 63.7918 139.841 62.7154C140.031 62.5683 140.191 62.1144 140.308 61.914C139.101 61.3569 139.149 62.3126 138.83 62.6634C138.279 62.0533 137.323 61.1377 136.962 60.5043Z" fill="#9A6F58"/>
<path d="M184.171 56.3268C189.79 59.5203 195.889 62.7839 201.289 66.2839M184.171 56.3268C189.686 59.09 196.331 62.6333 201.289 66.2839M184.171 56.3268C181.078 54.5711 179.345 54.0777 176.702 53.0547M201.289 66.2839C204.071 68.0897 207.457 70.5042 210.16 72.5164M155.546 53.6187C154.313 53.5554 152.776 53.4765 151.502 53.411M155.546 53.6187C157.097 53.8717 158.529 54.2011 160.136 54.6797M155.546 53.6187C164.616 54.0846 176.496 58.4207 186.509 63.0489M151.502 53.411C154.195 53.7928 157.496 54.0614 160.136 54.6797M151.502 53.411C148.682 52.2429 147.403 54.2444 144.656 52.6467C142.078 40.3581 165.041 48.5564 177.247 53.908M160.136 54.6797C169.148 57.375 179.799 60.6205 188.61 64.8074M136.962 60.5043C137.482 61.7772 138.465 63.7918 139.841 62.7154M136.962 60.5043C137.323 61.1377 138.279 62.0533 138.83 62.6634C139.149 62.3126 139.101 61.3569 140.308 61.914M136.962 60.5043C134.287 53.9505 137.976 44.0263 145.875 43.8377C153.772 43.6532 167.93 47.797 176.702 53.0547M139.841 62.7154C140.031 62.5683 140.191 62.1144 140.308 61.914M139.841 62.7154C142.777 64.0958 146.405 60.849 150.01 61.7934C153.616 62.7379 156.939 61.6789 160.927 62.808C164.92 63.9456 169.221 64.2862 173.505 65.6575C177.795 67.0373 181.916 68.2599 186.472 69.8803C191.022 71.4922 196.187 73.4617 200.865 75.5711C205.542 77.6806 210.427 79.9163 215.145 81.8503M140.308 61.914C143.409 56.5812 147.994 53.2473 159.067 56.069C170.136 58.8822 176.923 60.7658 187.911 66.0094M176.702 53.0547C176.964 53.2126 177.085 53.7924 177.247 53.908M177.247 53.908C190.565 59.7458 202.01 67.6579 213.351 75.9813M213.351 75.9813C212.377 75.1679 211.095 73.2906 210.16 72.5164M213.351 75.9813C214.621 76.9131 215.88 77.6668 217.009 78.6449M210.16 72.5164C212.615 74.3466 215.547 76.6098 217.009 78.6449M186.509 63.0489C196.578 67.7048 207.247 73.2992 217.009 78.6449M186.509 63.0489C186.876 63.2947 187.814 64.2961 188.61 64.8074M187.911 66.0094C190.03 66.8775 194.406 68.8972 196.391 69.3334M187.911 66.0094C194.155 68.9875 199.986 71.9609 206.273 75.6178M196.391 69.3334C196.002 69.1071 195.613 68.8808 195.613 68.8808M196.391 69.3334C199.76 71.2931 203.137 73.2574 206.506 75.2172M195.613 68.8808C193.31 67.5411 190.847 66.2427 188.61 64.8074M195.613 68.8808C199.385 70.8282 204.146 73.1524 208.296 75.7217M206.506 75.2172C206.895 75.4435 207.667 75.9081 208.063 76.1224M206.506 75.2172C206.506 75.2172 206.221 75.5821 206.273 75.6178M208.063 76.1224C208.321 76.0902 208.296 75.7217 208.296 75.7217M208.063 76.1224C209.699 77.0152 210.712 78.0658 211.72 78.786M208.296 75.7217C211.993 78.0119 215.221 80.4306 218.723 82.8594C218.624 84.1582 216.312 82.4756 215.145 81.8503M211.72 78.786C213.452 79.8364 216.207 82.5651 215.145 81.8503M211.72 78.786C209.926 77.6994 208.086 76.6724 206.273 75.6178" stroke="black"/>
<path d="M178.782 1.86195C185.962 1.72195 193.642 1.19195 200.782 1.86195C193.982 0.431945 185.622 1.03195 178.782 1.86195Z" fill="#C4B2A9"/>
<path d="M169.782 3.86192C170.122 3.87192 170.562 4.82192 170.782 4.86192C186.832 1.30192 202.242 3.64192 217.782 6.86192C216.392 6.40192 214.112 4.29192 212.782 3.86192C209.062 3.04192 204.462 2.21195 200.782 1.86195C193.642 1.19195 185.962 1.72195 178.782 1.86195C174.832 1.94195 172.892 2.90192 169.782 3.86192Z" fill="#BB7E5C"/>
<path d="M170.782 4.86192C156.072 8.12192 129.442 17.7419 138.782 37.8619C142.312 37.8619 142.422 32.7419 145.782 31.8619C147.042 30.6019 148.562 29.0819 149.782 27.8619C158.752 18.8919 172.582 14.0919 184.782 11.8619C197.052 9.62189 210.422 8.48189 222.782 7.86189C221.152 7.26189 219.522 7.22192 217.782 6.86192C202.242 3.64192 186.832 1.30192 170.782 4.86192Z" fill="#FB9150"/>
<path d="M135.782 60.8619C136.482 61.6519 137.912 62.3219 138.782 62.8619C138.892 61.8619 138.312 60.1319 139.782 59.8619C139.782 46.5519 142.322 35.3619 154.532 28.6119C166.732 21.8519 174.302 18.0019 187.782 15.8619C190.302 15.1819 195.632 14.2019 197.782 12.8619C197.282 12.8619 196.782 12.8619 196.782 12.8619C193.822 12.8619 190.732 13.1119 187.782 12.8619C176.982 14.6119 164.942 20.1119 154.782 24.8619C151.902 26.5719 148.582 29.6519 145.782 31.8619C142.422 32.7419 142.312 37.8619 138.782 37.8619C129.442 17.7419 156.072 8.12192 170.782 4.86192C170.562 4.82192 170.122 3.87192 169.782 3.86192C158.422 3.57192 142.512 11.2019 135.032 20.1119C127.552 29.0319 129.552 51.5419 135.782 60.8619Z" fill="#66351C"/>
<path d="M217.782 6.86192C219.522 7.22192 221.152 7.26189 222.782 7.86189C220.242 5.65189 216.162 4.61192 212.782 3.86192C214.112 4.29192 216.392 6.40192 217.782 6.86192Z" fill="#CEB6A9"/>
<path d="M149.782 27.8619C151.412 26.6519 152.972 25.7119 154.782 24.8619C164.942 20.1119 176.982 14.6119 187.782 12.8619C186.732 12.7719 185.272 11.9219 184.782 11.8619C172.582 14.0919 158.752 18.8919 149.782 27.8619Z" fill="#D4B9A9"/>
<path d="M196.782 12.8619C196.782 12.8619 197.282 12.8619 197.782 12.8619C202.112 12.8619 206.452 12.8619 210.782 12.8619C211.282 12.8619 212.282 12.8919 212.782 12.8619C213.012 12.5219 212.782 11.8619 212.782 11.8619C207.362 11.5719 201.492 12.4019 196.782 12.8619Z" fill="#998378"/>
<path d="M212.782 12.8619C214.852 12.7519 216.412 13.6119 217.782 13.8619C220.032 13.9419 224.202 16.0419 222.782 15.8619C224.252 15.7619 227.412 16.3919 226.782 13.8619C222.062 13.1319 217.612 12.1219 212.782 11.8619C212.782 11.8619 213.012 12.5219 212.782 12.8619Z" fill="#E0BEAA"/>
<path d="M187.782 15.8619C195.442 14.6419 202.702 13.8619 210.782 13.8619C210.712 13.8519 210.782 12.8619 210.782 12.8619C206.452 12.8619 202.112 12.8619 197.782 12.8619C195.632 14.2019 190.302 15.1819 187.782 15.8619Z" fill="#94522C"/>
<path d="M210.782 13.8619C213.112 13.8619 215.452 13.7819 217.782 13.8619C216.412 13.6119 214.852 12.7519 212.782 12.8619C212.282 12.8919 211.282 12.8619 210.782 12.8619C210.782 12.8619 210.712 13.8519 210.782 13.8619Z" fill="#BD7F5A"/>
<path d="M187.782 15.8619C174.302 18.0019 166.732 21.8519 154.532 28.6119C142.322 35.3619 139.782 46.5519 139.782 59.8619C139.782 60.3619 139.882 61.3819 139.782 61.8619C143.372 61.2519 145.042 51.262 149.032 49.112C153.022 46.962 155.622 41.382 160.082 39.162C164.552 36.952 168.872 32.922 173.752 30.832C178.642 28.752 183.282 26.562 188.562 24.642C193.832 22.712 199.892 20.782 205.562 19.642C211.232 18.502 217.172 17.3719 222.782 15.8619C224.202 16.0419 220.032 13.9419 217.782 13.8619C215.452 13.7819 213.112 13.8619 210.782 13.8619C202.702 13.8619 195.442 14.6419 187.782 15.8619Z" fill="#FB9253"/>
<path d="M149.782 27.8619C148.562 29.0819 147.042 30.6019 145.782 31.8619C148.582 29.6519 151.902 26.5719 154.782 24.8619C152.972 25.7119 151.412 26.6519 149.782 27.8619Z" fill="#9F7C68"/>
<path d="M135.782 60.8619C136.992 62.6719 139.062 65.3619 139.782 61.8619C139.882 61.3819 139.782 60.3619 139.782 59.8619C138.312 60.1319 138.892 61.8619 138.782 62.8619C137.912 62.3219 136.482 61.6519 135.782 60.8619Z" fill="#9A6F58"/>
<path d="M209.782 69.1756C204.662 77.6656 215.102 82.3355 207.012 91.4055C198.922 100.476 186.422 107.636 175.102 110.496C163.782 113.356 164.572 114.446 153.782 115.176C154.512 115.336 155.532 116.066 156.782 116.176C171.262 114.426 185.422 111.486 197.782 103.176C201.752 99.4356 206.992 95.5156 210.782 92.1756C219.872 112.226 192.462 121.516 177.782 124.176C177.912 124.186 179.142 125.096 179.782 125.176C186.282 123.786 195.142 122.556 200.702 119.096C206.272 115.646 211.902 113.356 215.472 107.866C219.052 102.386 218.442 89.7156 218.562 84.3956C218.672 79.0756 213.412 67.4356 209.782 69.1756Z" fill="#5D331D"/>
<path d="M127.782 113.176C124.692 115.536 130.932 114.996 131.782 115.176C136.372 115.556 141.172 115.176 145.782 115.176C148.432 115.176 151.142 115.356 153.782 115.176C164.572 114.446 163.782 113.356 175.102 110.496C186.422 107.636 198.922 100.476 207.012 91.4055C215.102 82.3355 204.662 77.6656 209.782 69.1756C204.022 71.9356 201.642 82.6055 195.032 86.4255C188.412 90.2355 183.972 95.6155 176.862 99.2555C169.742 102.896 161.162 104.816 153.802 108.196C146.452 111.576 134.702 109.636 127.782 113.176Z" fill="#F99354"/>
<path d="M197.782 103.176C186.602 113.716 169.612 117.246 154.782 119.176C145.952 120.526 136.602 120.526 127.782 119.176C127.932 120.136 128.922 120.846 129.782 121.176C129.792 121.256 131.292 121.116 131.782 121.176C137.462 121.896 146.932 123.886 151.782 126.176C152.282 126.176 152.782 126.176 152.782 126.176C161.612 126.176 169.552 125.966 177.782 124.176C192.462 121.516 219.872 112.226 210.782 92.1756C206.992 95.5156 201.752 99.4356 197.782 103.176Z" fill="#FA9151"/>
<path d="M156.782 116.176C152.672 116.676 147.552 117.176 142.782 117.176C142.282 117.176 141.282 117.176 140.782 117.176C143.012 118.826 152.092 119.096 154.782 119.176C169.612 117.246 186.602 113.716 197.782 103.176C185.422 111.486 171.262 114.426 156.782 116.176Z" fill="#D7C2B6"/>
<path d="M139.782 117.176C138.162 115.976 133.592 115.556 131.782 115.176C130.932 114.996 124.692 115.536 127.782 113.176C121.872 116.206 137.132 117.176 139.782 117.176Z" fill="#E2C7B8"/>
<path d="M139.782 117.176C139.782 117.176 140.282 117.176 140.782 117.176C141.282 117.176 142.282 117.176 142.782 117.176C143.402 117.016 145.202 115.326 145.782 115.176C141.172 115.176 136.372 115.556 131.782 115.176C133.592 115.556 138.162 115.976 139.782 117.176Z" fill="#B6724B"/>
<path d="M142.782 117.176C147.552 117.176 152.672 116.676 156.782 116.176C155.532 116.066 154.512 115.336 153.782 115.176C151.142 115.356 148.432 115.176 145.782 115.176C145.202 115.326 143.402 117.016 142.782 117.176Z" fill="#845841"/>
<path d="M140.782 125.176C137.892 124.356 134.482 122.556 131.782 121.176C131.292 121.116 129.792 121.256 129.782 121.176C130.292 124.166 138.612 124.806 140.782 125.176Z" fill="#DCC6B9"/>
<path d="M140.782 125.176C142.522 125.476 144.112 125.996 145.782 126.176C147.732 126.386 149.822 126.176 151.782 126.176C146.932 123.886 137.462 121.896 131.782 121.176C134.482 122.556 137.892 124.356 140.782 125.176Z" fill="#C17E56"/>
<path d="M152.782 126.176C153.032 126.426 152.782 127.176 152.782 127.176C162.172 127.366 171.352 126.986 179.782 125.176C179.142 125.096 177.912 124.186 177.782 124.176C169.552 125.966 161.612 126.176 152.782 126.176Z" fill="#A67255"/>
<path d="M152.782 127.176C152.782 127.176 153.032 126.426 152.782 126.176C152.782 126.176 152.282 126.176 151.782 126.176C149.822 126.176 147.732 126.386 145.782 126.176C147.832 126.676 150.092 127.126 152.782 127.176Z" fill="#C6AC9D"/>
<path d="M178.782 1.86195C185.962 1.72195 193.642 1.19195 200.782 1.86195M178.782 1.86195C185.622 1.03195 193.982 0.431945 200.782 1.86195M178.782 1.86195C174.832 1.94195 172.892 2.90192 169.782 3.86192M200.782 1.86195C204.462 2.21195 209.062 3.04192 212.782 3.86192M149.782 27.8619C148.562 29.0819 147.042 30.6019 145.782 31.8619M149.782 27.8619C151.412 26.6519 152.972 25.7119 154.782 24.8619M149.782 27.8619C158.752 18.8919 172.582 14.0919 184.782 11.8619M145.782 31.8619C148.582 29.6519 151.902 26.5719 154.782 24.8619M145.782 31.8619C142.422 32.7419 142.312 37.8619 138.782 37.8619C129.442 17.7419 156.072 8.12192 170.782 4.86192M154.782 24.8619C164.942 20.1119 176.982 14.6119 187.782 12.8619M135.782 60.8619C136.992 62.6719 139.062 65.3619 139.782 61.8619M135.782 60.8619C136.482 61.6519 137.912 62.3219 138.782 62.8619C138.892 61.8619 138.312 60.1319 139.782 59.8619M135.782 60.8619C129.552 51.5419 127.552 29.0319 135.032 20.1119C142.512 11.2019 158.422 3.57192 169.782 3.86192M139.782 61.8619C139.882 61.3819 139.782 60.3619 139.782 59.8619M139.782 61.8619C143.372 61.2519 145.042 51.262 149.032 49.112C153.022 46.962 155.622 41.382 160.082 39.162C164.552 36.952 168.872 32.922 173.752 30.832C178.642 28.752 183.282 26.562 188.562 24.642C193.832 22.712 199.892 20.782 205.562 19.642C211.232 18.502 217.172 17.3719 222.782 15.8619M139.782 59.8619C139.782 46.5519 142.322 35.3619 154.532 28.6119C166.732 21.8519 174.302 18.0019 187.782 15.8619M169.782 3.86192C170.122 3.87192 170.562 4.82192 170.782 4.86192M170.782 4.86192C186.832 1.30192 202.242 3.64192 217.782 6.86192M217.782 6.86192C216.392 6.40192 214.112 4.29192 212.782 3.86192M217.782 6.86192C219.522 7.22192 221.152 7.26189 222.782 7.86189M212.782 3.86192C216.162 4.61192 220.242 5.65189 222.782 7.86189M184.782 11.8619C197.052 9.62189 210.422 8.48189 222.782 7.86189M184.782 11.8619C185.272 11.9219 186.732 12.7719 187.782 12.8619M187.782 15.8619C190.302 15.1819 195.632 14.2019 197.782 12.8619M187.782 15.8619C195.442 14.6419 202.702 13.8619 210.782 13.8619M197.782 12.8619C197.282 12.8619 196.782 12.8619 196.782 12.8619M197.782 12.8619C202.112 12.8619 206.452 12.8619 210.782 12.8619M196.782 12.8619C193.822 12.8619 190.732 13.1119 187.782 12.8619M196.782 12.8619C201.492 12.4019 207.362 11.5719 212.782 11.8619M210.782 12.8619C211.282 12.8619 212.282 12.8919 212.782 12.8619M210.782 12.8619C210.782 12.8619 210.712 13.8519 210.782 13.8619M212.782 12.8619C213.012 12.5219 212.782 11.8619 212.782 11.8619M212.782 12.8619C214.852 12.7519 216.412 13.6119 217.782 13.8619M212.782 11.8619C217.612 12.1219 222.062 13.1319 226.782 13.8619C227.412 16.3919 224.252 15.7619 222.782 15.8619M217.782 13.8619C220.032 13.9419 224.202 16.0419 222.782 15.8619M217.782 13.8619C215.452 13.7819 213.112 13.8619 210.782 13.8619M209.782 69.1756C204.662 77.6656 215.102 82.3355 207.012 91.4055C198.922 100.476 186.422 107.636 175.102 110.496C163.782 113.356 164.572 114.446 153.782 115.176M209.782 69.1756C213.412 67.4356 218.672 79.0756 218.562 84.3956C218.442 89.7156 219.052 102.386 215.472 107.866C211.902 113.356 206.272 115.646 200.702 119.096C195.142 122.556 186.282 123.786 179.782 125.176M209.782 69.1756C204.022 71.9356 201.642 82.6055 195.032 86.4255C188.412 90.2355 183.972 95.6155 176.862 99.2555C169.742 102.896 161.162 104.816 153.802 108.196C146.452 111.576 134.702 109.636 127.782 113.176M153.782 115.176C154.512 115.336 155.532 116.066 156.782 116.176M153.782 115.176C151.142 115.356 148.432 115.176 145.782 115.176M156.782 116.176C171.262 114.426 185.422 111.486 197.782 103.176M156.782 116.176C152.672 116.676 147.552 117.176 142.782 117.176M197.782 103.176C201.752 99.4356 206.992 95.5156 210.782 92.1756C219.872 112.226 192.462 121.516 177.782 124.176M197.782 103.176C186.602 113.716 169.612 117.246 154.782 119.176M177.782 124.176C177.912 124.186 179.142 125.096 179.782 125.176M177.782 124.176C169.552 125.966 161.612 126.176 152.782 126.176M179.782 125.176C171.352 126.986 162.172 127.366 152.782 127.176M127.782 113.176C124.692 115.536 130.932 114.996 131.782 115.176M127.782 113.176C121.872 116.206 137.132 117.176 139.782 117.176M131.782 115.176C136.372 115.556 141.172 115.176 145.782 115.176M131.782 115.176C133.592 115.556 138.162 115.976 139.782 117.176M145.782 115.176C145.202 115.326 143.402 117.016 142.782 117.176M154.782 119.176C145.952 120.526 136.602 120.526 127.782 119.176C127.932 120.136 128.922 120.846 129.782 121.176M154.782 119.176C152.092 119.096 143.012 118.826 140.782 117.176M129.782 121.176C129.792 121.256 131.292 121.116 131.782 121.176M129.782 121.176C130.292 124.166 138.612 124.806 140.782 125.176M131.782 121.176C137.462 121.896 146.932 123.886 151.782 126.176M131.782 121.176C134.482 122.556 137.892 124.356 140.782 125.176M151.782 126.176C152.282 126.176 152.782 126.176 152.782 126.176M151.782 126.176C149.822 126.176 147.732 126.386 145.782 126.176M152.782 126.176C153.032 126.426 152.782 127.176 152.782 127.176M142.782 117.176C142.282 117.176 141.282 117.176 140.782 117.176M140.782 117.176C140.282 117.176 139.782 117.176 139.782 117.176M140.782 125.176C142.522 125.476 144.112 125.996 145.782 126.176M145.782 126.176C147.832 126.676 150.092 127.126 152.782 127.176" stroke="black"/>
</svg>
