<svg width="24" height="24" viewBox="0 0 24 24" fill="none" xmlns="http://www.w3.org/2000/svg">
<path d="M12 21V3M21 12H3" stroke="currentColor" stroke-width="2" stroke-linecap="round" stroke-linejoin="round"/>
<path d="M18.6 6.9L14.4 10.1C14.1 10.4 13.7 10.6 13.3 10.7C13.1 10.8 12.8 10.9 12.6 10.9C12.4 10.9 12.1 10.8 11.9 10.7C11.5 10.6 11.2 10.4 10.9 10.1L6.7 6.9M10.9 17.1L6.7 20.3C6.4 20.6 6.1 20.8 5.8 20.9C5.6 21 5.3 21.1 5.1 21.1C4.9 21.1 4.6 21 4.4 20.9C4.1 20.8 3.8 20.6 3.5 20.3L10.9 17.1M17.1 10.9L20.3 13.3C20.6 13.6 20.8 13.9 20.9 14.2C21 14.4 21.1 14.7 21.1 14.9C21.1 15.1 21 15.4 20.9 15.7C20.8 15.9 20.6 16.2 20.3 16.5L17.1 10.9" stroke="currentColor" stroke-width="2" stroke-linecap="round" stroke-linejoin="round"/>
</svg>